<?xml version="1.0" encoding="UTF-8"?>
<svg version="1.1" xmlns="http://www.w3.org/2000/svg" width="48" height="48">
<path d="M0 0 C15.84 0 31.68 0 48 0 C48 15.84 48 31.68 48 48 C32.16 48 16.32 48 0 48 C0 32.16 0 16.32 0 0 Z " fill="#FCFCFC" transform="translate(0,0)"/>
<path d="M0 0 C0.33 1.32 0.66 2.64 1 4 C2.36125 3.2575 2.36125 3.2575 3.75 2.5 C7 1 7 1 11 1 C10.42655063 3.86724686 10.1385485 4.8614515 8 7 C8.495 7.350625 8.99 7.70125 9.5 8.0625 C11 10 11 10 11.5 13.3125 C10.84144183 18.16936652 9.47174637 19.60899192 6 23 C2.27348227 24.24217258 -1.12942074 24.5341253 -5 24 C-8.10352458 22.39076503 -10.21701424 20.99652733 -12.375 18.25 C-13.3523507 14.73153747 -13.78133965 11.5623791 -13 8 C-9.54802035 2.47259701 -6.58562176 -0.17330584 0 0 Z " fill="#8592A4" transform="translate(25,12)"/>
<path d="M0 0 C1.32 0.99 2.64 1.98 4 3 C3.67 3.66 3.34 4.32 3 5 C3.33 5.66 3.66 6.32 4 7 C4.53109375 6.69964844 5.0621875 6.39929688 5.609375 6.08984375 C6.31578125 5.70957031 7.0221875 5.32929688 7.75 4.9375 C8.44609375 4.55464844 9.1421875 4.17179687 9.859375 3.77734375 C12.36140628 2.8687594 13.5332355 3.11663163 16 4 C16.88491063 7.20780105 17.42670101 9.75868796 16.3125 13 C14.57174397 15.65258062 12.87640022 16.69877133 10 18 C7.6875 17.6875 7.6875 17.6875 6 17 C6.33 16.01 6.66 15.02 7 14 C6.34 14 5.68 14 5 14 C4.67 14.99 4.34 15.98 4 17 C0.34683329 15.75023244 -0.78065836 15.32901247 -3 12 C-3.30078125 9.58984375 -3.30078125 9.58984375 -3.3125 6.9375 C-3.32925781 6.05964844 -3.34601562 5.18179687 -3.36328125 4.27734375 C-3.24339844 3.52582031 -3.12351562 2.77429688 -3 2 C-2.01 1.34 -1.02 0.68 0 0 Z " fill="#EFF0F3" transform="translate(17,17)"/>
<path d="M0 0 C1.32 0.99 2.64 1.98 4 3 C3.67 3.66 3.34 4.32 3 5 C3.53195637 7.14853436 3.53195637 7.14853436 5 9 C7.55519921 9.81171228 7.55519921 9.81171228 10 10 C10 9.34 10 8.68 10 8 C10.66 8.33 11.32 8.66 12 9 C10.36272637 10.80100099 9.0956064 11.95500875 6.875 13 C4.6469565 13.91202978 4.6469565 13.91202978 4 17 C0.34683329 15.75023244 -0.78065836 15.32901247 -3 12 C-3.30078125 9.58984375 -3.30078125 9.58984375 -3.3125 6.9375 C-3.32925781 6.05964844 -3.34601562 5.18179687 -3.36328125 4.27734375 C-3.24339844 3.52582031 -3.12351562 2.77429688 -3 2 C-2.01 1.34 -1.02 0.68 0 0 Z " fill="#ACB5C1" transform="translate(17,17)"/>
<path d="M0 0 C0 0.99 0 1.98 0 3 C1.36125 2.2575 1.36125 2.2575 2.75 1.5 C6 0 6 0 10 0 C9.8125 1.875 9.8125 1.875 9 4 C6.625 5.0625 6.625 5.0625 4 6 C3.54625 6.474375 3.0925 6.94875 2.625 7.4375 C0.12629971 9.84009644 -2.79052066 10.72831951 -6 12 C-6 11.01 -6 10.02 -6 9 C-6.66 8.67 -7.32 8.34 -8 8 C-7.525625 7.566875 -7.05125 7.13375 -6.5625 6.6875 C-4.76313043 4.97690387 -4.76313043 4.97690387 -4 2 C-4.99 1.67 -5.98 1.34 -7 1 C-4.53721199 -0.231394 -2.7204945 -0.07159196 0 0 Z " fill="#728296" transform="translate(26,13)"/>
<path d="M0 0 C2.62593651 1.31296825 3.52350536 2.44969108 5 5 C5.65764741 9.43911998 5.30885476 11.46199493 3.0625 15.375 C0.10646196 18.58734191 -2.99736569 18.78616798 -7.20703125 18.9921875 C-8.09455078 18.99605469 -8.09455078 18.99605469 -9 19 C-9 18.67 -9 18.34 -9 18 C-8.38511719 17.82984375 -7.77023438 17.6596875 -7.13671875 17.484375 C-2.02672252 16.0327103 -2.02672252 16.0327103 2.0625 12.8125 C2.371875 12.214375 2.68125 11.61625 3 11 C2.01 10.67 1.02 10.34 0 10 C0 9.34 0 8.68 0 8 C0.99 8 1.98 8 3 8 C1.63016497 4.83884224 1.0109362 4.0072908 -2 2 C-1.34 1.34 -0.68 0.68 0 0 Z " fill="#6F7F94" transform="translate(31,17)"/>
<path d="M0 0 C1.32 0.99 2.64 1.98 4 3 C3.38125 3.2475 2.7625 3.495 2.125 3.75 C-0.35068687 5.20628639 -0.95125002 6.37812506 -2 9 C-0.35 9 1.3 9 3 9 C2.67 9.66 2.34 10.32 2 11 C1.34 11 0.68 11 0 11 C-0.66 11.99 -1.32 12.98 -2 14 C-3.23408207 11.53183586 -3.20197579 9.75338799 -3.25 7 C-3.27578125 6.113125 -3.3015625 5.22625 -3.328125 4.3125 C-3.21984375 3.549375 -3.1115625 2.78625 -3 2 C-2.01 1.34 -1.02 0.68 0 0 Z " fill="#FBFBFC" transform="translate(17,17)"/>
<path d="M0 0 C0.99 0.66 1.98 1.32 3 2 C3 3.32 3 4.64 3 6 C2.34 6.66 1.68 7.32 1 8 C-1.625 7.625 -1.625 7.625 -4 7 C-2.79618552 4.50638429 -1.54571278 2.31856917 0 0 Z " fill="#B2BAC5" transform="translate(30,25)"/>
<path d="M0 0 C-0.39803561 2.88575819 -0.79009069 3.82189513 -3.0625 5.75 C-3.701875 6.1625 -4.34125 6.575 -5 7 C-4.67 5.35 -4.34 3.7 -4 2 C-4.99 1.67 -5.98 1.34 -7 1 C-4.53721199 -0.231394 -2.7204945 -0.07159196 0 0 Z " fill="#CCD1D9" transform="translate(26,13)"/>
<path d="M0 0 C0.99 0.33 1.98 0.66 3 1 C2.1875 2.9375 2.1875 2.9375 1 5 C0.01 5.33 -0.98 5.66 -2 6 C-2.66 5.67 -3.32 5.34 -4 5 C-3.67 4.34 -3.34 3.68 -3 3 C-2.34 3.33 -1.68 3.66 -1 4 C-0.67 2.68 -0.34 1.36 0 0 Z " fill="#7C8A9D" transform="translate(22,30)"/>
<path d="M0 0 C0 1.32 0 2.64 0 4 C-1.65 4 -3.3 4 -5 4 C-5.33 3.01 -5.66 2.02 -6 1 C-4 0 -4 0 0 0 Z " fill="#F8F9FA" transform="translate(27,23)"/>
<path d="M0 0 C0 0.99 0 1.98 0 3 C-2.88834003 5.10770759 -4.38462395 6 -8 6 C-8 5.34 -8 4.68 -8 4 C-5.36 2.68 -2.72 1.36 0 0 Z " fill="#EAEDF0" transform="translate(33,14)"/>
<path d="M0 0 C0.99 0.33 1.98 0.66 3 1 C3 2.32 3 3.64 3 5 C1.35 5 -0.3 5 -2 5 C-1.34 3.35 -0.68 1.7 0 0 Z " fill="#A1ACB9" transform="translate(17,21)"/>
<path d="M0 0 C0.33 0.99 0.66 1.98 1 3 C2.65 3 4.3 3 6 3 C5.67 3.66 5.34 4.32 5 5 C4.34 5 3.68 5 3 5 C2.34 5.99 1.68 6.98 1 8 C-0.35439668 5.29120665 -0.06501451 2.99066732 0 0 Z " fill="#F2F4F6" transform="translate(14,23)"/>
</svg>
